<mxfile host="app.diagrams.net" modified="2022-06-16T06:22:10.483Z" agent="5.0 (Macintosh; Intel Mac OS X 10_15_7) AppleWebKit/537.36 (KHTML, like Gecko) Chrome/101.0.4951.64 Safari/537.36" etag="pQ_iBlJqIT03iMZncUJc" version="20.0.1" type="github">
  <diagram id="QWaLk7IN20cdrfLnV8OY" name="Page-1">
    <mxGraphModel dx="1165" dy="1710" grid="1" gridSize="10" guides="1" tooltips="1" connect="1" arrows="1" fold="1" page="1" pageScale="1" pageWidth="900" pageHeight="1600" background="#FFFFFF" math="0" shadow="0">
      <root>
        <mxCell id="0" />
        <mxCell id="1" parent="0" />
        <mxCell id="qiCiA2myx4UJtC2wgqbX-6" value="" style="rounded=0;whiteSpace=wrap;html=1;fontSize=24;fillColor=#FFFFFF;" parent="1" vertex="1">
          <mxGeometry width="900" height="240" as="geometry" />
        </mxCell>
        <mxCell id="qiCiA2myx4UJtC2wgqbX-1" value="&lt;font style=&quot;font-size: 24px;&quot;&gt;Cafe Hoppers&lt;br&gt;logo&lt;/font&gt;" style="rounded=0;whiteSpace=wrap;html=1;fillColor=#E6E6E6;" parent="1" vertex="1">
          <mxGeometry x="30" y="70" width="210" height="100" as="geometry" />
        </mxCell>
        <mxCell id="qiCiA2myx4UJtC2wgqbX-7" value="menu&lt;br&gt;icon" style="rounded=0;whiteSpace=wrap;html=1;fontSize=24;fillColor=#E6E6E6;" parent="1" vertex="1">
          <mxGeometry x="750" y="80" width="120" height="100" as="geometry" />
        </mxCell>
        <mxCell id="qiCiA2myx4UJtC2wgqbX-10" value="footer content" style="rounded=0;whiteSpace=wrap;html=1;fontSize=24;fillColor=#FFFFFF;" parent="1" vertex="1">
          <mxGeometry y="1380" width="900" height="220" as="geometry" />
        </mxCell>
        <mxCell id="alxngudCPENM9emR9nhb-4" value="about us" style="swimlane;startSize=200;fontSize=40;align=center;verticalAlign=middle;" parent="1" vertex="1">
          <mxGeometry y="240" width="900" height="1140" as="geometry" />
        </mxCell>
        <mxCell id="m13c1VVCvo1BrJ8PwNhT-1" value="&lt;font style=&quot;font-size: 30px;&quot;&gt;photo of person&lt;/font&gt;" style="rounded=0;whiteSpace=wrap;html=1;fontSize=40;fillColor=#E6E6E6;" parent="alxngudCPENM9emR9nhb-4" vertex="1">
          <mxGeometry x="40" y="230" width="480" height="490" as="geometry" />
        </mxCell>
        <mxCell id="m13c1VVCvo1BrJ8PwNhT-2" value="&lt;font style=&quot;font-size: 30px; line-height: 1;&quot;&gt;Lorem ipsum dolor sit amet, consectetur adipiscing elit. Nullam a porttitor magna, id bibendum sem. Donec posuere diam massa, sit amet tempor ex pretium sit amet. Nunc et leo ac velit egestas egestas. Duis luctus purus massa, eu dignissim tellus feugiat at. Maecenas vitae&amp;nbsp;&lt;/font&gt;maximus augue, eu varius dui. Integer in" style="text;html=1;strokeColor=none;fillColor=none;align=left;verticalAlign=top;whiteSpace=wrap;rounded=0;fontSize=30;" parent="alxngudCPENM9emR9nhb-4" vertex="1">
          <mxGeometry x="550" y="230" width="320" height="560" as="geometry" />
        </mxCell>
        <mxCell id="m13c1VVCvo1BrJ8PwNhT-5" value="image caption" style="text;html=1;strokeColor=none;fillColor=none;align=center;verticalAlign=middle;whiteSpace=wrap;rounded=0;labelBackgroundColor=none;fontFamily=Helvetica;fontSize=30;" parent="alxngudCPENM9emR9nhb-4" vertex="1">
          <mxGeometry x="175" y="740" width="210" height="30" as="geometry" />
        </mxCell>
        <mxCell id="m13c1VVCvo1BrJ8PwNhT-6" value="&lt;h1&gt;our mission&lt;/h1&gt;&lt;div&gt;Lorem ipsum dolor sit amet, consectetur adipiscing elit. Nullam a porttitor magna, id bibendum sem. Donec posuere diam massa, sit amet tempor ex pretium sit amet. Nunc et leo ac velit egestas egestas. Duis luctus purus massa, eu dignissim tellus feugiat at. Maecenas vitae maximus augue.&lt;br&gt;&lt;/div&gt;&lt;p&gt;&lt;/p&gt;" style="text;html=1;strokeColor=none;fillColor=none;spacing=5;spacingTop=-20;whiteSpace=wrap;overflow=hidden;rounded=0;labelBackgroundColor=none;fontFamily=Helvetica;fontSize=30;" parent="alxngudCPENM9emR9nhb-4" vertex="1">
          <mxGeometry x="40" y="790" width="820" height="350" as="geometry" />
        </mxCell>
      </root>
    </mxGraphModel>
  </diagram>
</mxfile>
